<?xml version="1.0" encoding="utf-8"?>
<!-- Generator: Adobe Illustrator 23.0.0, SVG Export Plug-In . SVG Version: 6.00 Build 0)  -->
<svg version="1.1" id="Capa_1" xmlns="http://www.w3.org/2000/svg" xmlns:xlink="http://www.w3.org/1999/xlink" x="0px" y="0px"
	 viewBox="0 0 20 20" style="enable-background:new 0 0 20 20;" xml:space="preserve">
<style type="text/css">
	.st0{fill:#FFFFFF;}
</style>
<path class="st0" d="M10,1c-5,0-9,4-9,9s4,9,9,9s9-4,9-9S15,1,10,1z M14.7,15.3c-0.8,0.7-3.7-0.1-6.4-3C5.5,9.4,4.8,6.5,5.6,5.7
	c0.7-0.7,1.5-1.8,2.7-0.2c1.2,1.6,0.6,2-0.1,2.6c-0.5,0.5,0.5,1.7,1.5,2.8c1,1.1,2.2,2.1,2.7,1.7c0.7-0.7,1.2-1.3,2.6,0
	C16.5,13.9,15.3,14.6,14.7,15.3z"/>
</svg>
